<mxfile host="app.diagrams.net" agent="Mozilla/5.0 (Windows NT 10.0; Win64; x64) AppleWebKit/537.36 (KHTML, like Gecko) Chrome/130.0.0.0 Safari/537.36 Edg/130.0.0.0" version="24.8.2">
  <diagram name="Страница — 1" id="logO4ZOY-ghGTpIPGNvc">
    <mxGraphModel grid="1" page="1" gridSize="10" guides="1" tooltips="1" connect="1" arrows="1" fold="1" pageScale="1" pageWidth="827" pageHeight="1169" math="0" shadow="0">
      <root>
        <mxCell id="0" />
        <mxCell id="1" parent="0" />
        <mxCell id="ZrmSCk85JjBCpXTHYp6l-1" value="&lt;i&gt;Tool&lt;/i&gt;" style="swimlane;fontStyle=1;align=center;verticalAlign=top;childLayout=stackLayout;horizontal=1;startSize=26;horizontalStack=0;resizeParent=1;resizeParentMax=0;resizeLast=0;collapsible=1;marginBottom=0;whiteSpace=wrap;html=1;" vertex="1" parent="1">
          <mxGeometry x="340" y="330" width="160" height="86" as="geometry" />
        </mxCell>
        <mxCell id="ZrmSCk85JjBCpXTHYp6l-2" value="+ field: type" style="text;strokeColor=none;fillColor=none;align=left;verticalAlign=top;spacingLeft=4;spacingRight=4;overflow=hidden;rotatable=0;points=[[0,0.5],[1,0.5]];portConstraint=eastwest;whiteSpace=wrap;html=1;" vertex="1" parent="ZrmSCk85JjBCpXTHYp6l-1">
          <mxGeometry y="26" width="160" height="26" as="geometry" />
        </mxCell>
        <mxCell id="ZrmSCk85JjBCpXTHYp6l-3" value="" style="line;strokeWidth=1;fillColor=none;align=left;verticalAlign=middle;spacingTop=-1;spacingLeft=3;spacingRight=3;rotatable=0;labelPosition=right;points=[];portConstraint=eastwest;strokeColor=inherit;" vertex="1" parent="ZrmSCk85JjBCpXTHYp6l-1">
          <mxGeometry y="52" width="160" height="8" as="geometry" />
        </mxCell>
        <mxCell id="ZrmSCk85JjBCpXTHYp6l-4" value="+ Handle(): void" style="text;strokeColor=none;fillColor=none;align=left;verticalAlign=top;spacingLeft=4;spacingRight=4;overflow=hidden;rotatable=0;points=[[0,0.5],[1,0.5]];portConstraint=eastwest;whiteSpace=wrap;html=1;" vertex="1" parent="ZrmSCk85JjBCpXTHYp6l-1">
          <mxGeometry y="60" width="160" height="26" as="geometry" />
        </mxCell>
        <mxCell id="ZrmSCk85JjBCpXTHYp6l-9" style="edgeStyle=orthogonalEdgeStyle;rounded=0;orthogonalLoop=1;jettySize=auto;html=1;entryX=1;entryY=0.5;entryDx=0;entryDy=0;endArrow=block;endFill=0;startSize=7;endSize=11;" edge="1" parent="1" source="ZrmSCk85JjBCpXTHYp6l-5" target="ZrmSCk85JjBCpXTHYp6l-2">
          <mxGeometry relative="1" as="geometry" />
        </mxCell>
        <mxCell id="ZrmSCk85JjBCpXTHYp6l-25" style="edgeStyle=orthogonalEdgeStyle;rounded=0;orthogonalLoop=1;jettySize=auto;html=1;entryX=0.5;entryY=0;entryDx=0;entryDy=0;" edge="1" parent="1" source="ZrmSCk85JjBCpXTHYp6l-5" target="ZrmSCk85JjBCpXTHYp6l-21">
          <mxGeometry relative="1" as="geometry" />
        </mxCell>
        <mxCell id="ZrmSCk85JjBCpXTHYp6l-5" value="BrightnessEditor" style="swimlane;fontStyle=1;align=center;verticalAlign=top;childLayout=stackLayout;horizontal=1;startSize=26;horizontalStack=0;resizeParent=1;resizeParentMax=0;resizeLast=0;collapsible=1;marginBottom=0;whiteSpace=wrap;html=1;" vertex="1" parent="1">
          <mxGeometry x="610" y="328" width="160" height="82" as="geometry" />
        </mxCell>
        <mxCell id="ZrmSCk85JjBCpXTHYp6l-6" value="+ field: type" style="text;strokeColor=none;fillColor=none;align=left;verticalAlign=top;spacingLeft=4;spacingRight=4;overflow=hidden;rotatable=0;points=[[0,0.5],[1,0.5]];portConstraint=eastwest;whiteSpace=wrap;html=1;" vertex="1" parent="ZrmSCk85JjBCpXTHYp6l-5">
          <mxGeometry y="26" width="160" height="22" as="geometry" />
        </mxCell>
        <mxCell id="ZrmSCk85JjBCpXTHYp6l-7" value="" style="line;strokeWidth=1;fillColor=none;align=left;verticalAlign=middle;spacingTop=-1;spacingLeft=3;spacingRight=3;rotatable=0;labelPosition=right;points=[];portConstraint=eastwest;strokeColor=inherit;" vertex="1" parent="ZrmSCk85JjBCpXTHYp6l-5">
          <mxGeometry y="48" width="160" height="8" as="geometry" />
        </mxCell>
        <mxCell id="ZrmSCk85JjBCpXTHYp6l-8" value="+ Handle(): void" style="text;strokeColor=none;fillColor=none;align=left;verticalAlign=top;spacingLeft=4;spacingRight=4;overflow=hidden;rotatable=0;points=[[0,0.5],[1,0.5]];portConstraint=eastwest;whiteSpace=wrap;html=1;" vertex="1" parent="ZrmSCk85JjBCpXTHYp6l-5">
          <mxGeometry y="56" width="160" height="26" as="geometry" />
        </mxCell>
        <mxCell id="ZrmSCk85JjBCpXTHYp6l-47" style="edgeStyle=orthogonalEdgeStyle;rounded=0;orthogonalLoop=1;jettySize=auto;html=1;entryX=0.5;entryY=0;entryDx=0;entryDy=0;exitX=0;exitY=0.5;exitDx=0;exitDy=0;" edge="1" parent="1" source="cnXh2z_6RO4iK5pfUF1w-2" target="ZrmSCk85JjBCpXTHYp6l-41">
          <mxGeometry relative="1" as="geometry">
            <mxPoint x="290" y="90" as="sourcePoint" />
          </mxGeometry>
        </mxCell>
        <mxCell id="ZrmSCk85JjBCpXTHYp6l-18" style="edgeStyle=orthogonalEdgeStyle;rounded=0;orthogonalLoop=1;jettySize=auto;html=1;entryX=1;entryY=0.5;entryDx=0;entryDy=0;endArrow=block;endFill=0;endSize=11;" edge="1" parent="1" source="ZrmSCk85JjBCpXTHYp6l-14" target="cnXh2z_6RO4iK5pfUF1w-2">
          <mxGeometry relative="1" as="geometry">
            <mxPoint x="480" y="90" as="targetPoint" />
            <Array as="points">
              <mxPoint x="540" y="90" />
            </Array>
          </mxGeometry>
        </mxCell>
        <mxCell id="ZrmSCk85JjBCpXTHYp6l-14" value="ChangeBrightnessCommand" style="swimlane;fontStyle=1;align=center;verticalAlign=top;childLayout=stackLayout;horizontal=1;startSize=26;horizontalStack=0;resizeParent=1;resizeParentMax=0;resizeLast=0;collapsible=1;marginBottom=0;whiteSpace=wrap;html=1;" vertex="1" parent="1">
          <mxGeometry x="610" y="49" width="560" height="164" as="geometry" />
        </mxCell>
        <mxCell id="ZrmSCk85JjBCpXTHYp6l-15" value="+ oldBrightness: real" style="text;strokeColor=none;fillColor=none;align=left;verticalAlign=top;spacingLeft=4;spacingRight=4;overflow=hidden;rotatable=0;points=[[0,0.5],[1,0.5]];portConstraint=eastwest;whiteSpace=wrap;html=1;" vertex="1" parent="ZrmSCk85JjBCpXTHYp6l-14">
          <mxGeometry y="26" width="560" height="26" as="geometry" />
        </mxCell>
        <mxCell id="ZrmSCk85JjBCpXTHYp6l-58" value="+ _image: Image" style="text;strokeColor=none;fillColor=none;align=left;verticalAlign=top;spacingLeft=4;spacingRight=4;overflow=hidden;rotatable=0;points=[[0,0.5],[1,0.5]];portConstraint=eastwest;whiteSpace=wrap;html=1;" vertex="1" parent="ZrmSCk85JjBCpXTHYp6l-14">
          <mxGeometry y="52" width="560" height="26" as="geometry" />
        </mxCell>
        <mxCell id="ZrmSCk85JjBCpXTHYp6l-56" value="+ newBrightness: real" style="text;strokeColor=none;fillColor=none;align=left;verticalAlign=top;spacingLeft=4;spacingRight=4;overflow=hidden;rotatable=0;points=[[0,0.5],[1,0.5]];portConstraint=eastwest;whiteSpace=wrap;html=1;" vertex="1" parent="ZrmSCk85JjBCpXTHYp6l-14">
          <mxGeometry y="78" width="560" height="26" as="geometry" />
        </mxCell>
        <mxCell id="ZrmSCk85JjBCpXTHYp6l-16" value="" style="line;strokeWidth=1;fillColor=none;align=left;verticalAlign=middle;spacingTop=-1;spacingLeft=3;spacingRight=3;rotatable=0;labelPosition=right;points=[];portConstraint=eastwest;strokeColor=inherit;" vertex="1" parent="ZrmSCk85JjBCpXTHYp6l-14">
          <mxGeometry y="104" width="560" height="8" as="geometry" />
        </mxCell>
        <mxCell id="ZrmSCk85JjBCpXTHYp6l-17" value="+ ChangeBrightnessCommand(oldBrightness: real, newBrightness: real, Image: Image)" style="text;strokeColor=none;fillColor=none;align=left;verticalAlign=top;spacingLeft=4;spacingRight=4;overflow=hidden;rotatable=0;points=[[0,0.5],[1,0.5]];portConstraint=eastwest;whiteSpace=wrap;html=1;" vertex="1" parent="ZrmSCk85JjBCpXTHYp6l-14">
          <mxGeometry y="112" width="560" height="26" as="geometry" />
        </mxCell>
        <mxCell id="ZrmSCk85JjBCpXTHYp6l-55" value="+ Execute()" style="text;strokeColor=none;fillColor=none;align=left;verticalAlign=top;spacingLeft=4;spacingRight=4;overflow=hidden;rotatable=0;points=[[0,0.5],[1,0.5]];portConstraint=eastwest;whiteSpace=wrap;html=1;" vertex="1" parent="ZrmSCk85JjBCpXTHYp6l-14">
          <mxGeometry y="138" width="560" height="26" as="geometry" />
        </mxCell>
        <mxCell id="ZrmSCk85JjBCpXTHYp6l-19" style="edgeStyle=orthogonalEdgeStyle;rounded=0;orthogonalLoop=1;jettySize=auto;html=1;entryX=0;entryY=0.5;entryDx=0;entryDy=0;endArrow=open;endFill=0;dashed=1;" edge="1" parent="1" source="ZrmSCk85JjBCpXTHYp6l-5" target="ZrmSCk85JjBCpXTHYp6l-55">
          <mxGeometry relative="1" as="geometry" />
        </mxCell>
        <mxCell id="ZrmSCk85JjBCpXTHYp6l-59" style="edgeStyle=orthogonalEdgeStyle;rounded=0;orthogonalLoop=1;jettySize=auto;html=1;entryX=0.75;entryY=0;entryDx=0;entryDy=0;endArrow=none;endFill=0;startArrow=diamondThin;startFill=0;startSize=12;" edge="1" parent="1" source="ZrmSCk85JjBCpXTHYp6l-21">
          <mxGeometry relative="1" as="geometry">
            <Array as="points">
              <mxPoint x="1300" y="613" />
              <mxPoint x="1300" y="30" />
              <mxPoint x="433" y="30" />
            </Array>
            <mxPoint x="432.5" y="50" as="targetPoint" />
          </mxGeometry>
        </mxCell>
        <mxCell id="ZrmSCk85JjBCpXTHYp6l-21" value="CommandHistory" style="swimlane;fontStyle=1;align=center;verticalAlign=top;childLayout=stackLayout;horizontal=1;startSize=26;horizontalStack=0;resizeParent=1;resizeParentMax=0;resizeLast=0;collapsible=1;marginBottom=0;whiteSpace=wrap;html=1;" vertex="1" parent="1">
          <mxGeometry x="610" y="570" width="340" height="112" as="geometry" />
        </mxCell>
        <mxCell id="ZrmSCk85JjBCpXTHYp6l-23" value="" style="line;strokeWidth=1;fillColor=none;align=left;verticalAlign=middle;spacingTop=-1;spacingLeft=3;spacingRight=3;rotatable=0;labelPosition=right;points=[];portConstraint=eastwest;strokeColor=inherit;" vertex="1" parent="ZrmSCk85JjBCpXTHYp6l-21">
          <mxGeometry y="26" width="340" height="8" as="geometry" />
        </mxCell>
        <mxCell id="ZrmSCk85JjBCpXTHYp6l-24" value="+ ExecuteCommand(command: Command): void" style="text;strokeColor=none;fillColor=none;align=left;verticalAlign=top;spacingLeft=4;spacingRight=4;overflow=hidden;rotatable=0;points=[[0,0.5],[1,0.5]];portConstraint=eastwest;whiteSpace=wrap;html=1;" vertex="1" parent="ZrmSCk85JjBCpXTHYp6l-21">
          <mxGeometry y="34" width="340" height="26" as="geometry" />
        </mxCell>
        <mxCell id="ZrmSCk85JjBCpXTHYp6l-61" value="+ Undo(): void" style="text;strokeColor=none;fillColor=none;align=left;verticalAlign=top;spacingLeft=4;spacingRight=4;overflow=hidden;rotatable=0;points=[[0,0.5],[1,0.5]];portConstraint=eastwest;whiteSpace=wrap;html=1;" vertex="1" parent="ZrmSCk85JjBCpXTHYp6l-21">
          <mxGeometry y="60" width="340" height="26" as="geometry" />
        </mxCell>
        <mxCell id="ZrmSCk85JjBCpXTHYp6l-60" value="+ Redo(): void" style="text;strokeColor=none;fillColor=none;align=left;verticalAlign=top;spacingLeft=4;spacingRight=4;overflow=hidden;rotatable=0;points=[[0,0.5],[1,0.5]];portConstraint=eastwest;whiteSpace=wrap;html=1;" vertex="1" parent="ZrmSCk85JjBCpXTHYp6l-21">
          <mxGeometry y="86" width="340" height="26" as="geometry" />
        </mxCell>
        <mxCell id="ZrmSCk85JjBCpXTHYp6l-35" style="edgeStyle=orthogonalEdgeStyle;rounded=0;orthogonalLoop=1;jettySize=auto;html=1;entryX=0;entryY=0.5;entryDx=0;entryDy=0;dashed=1;dashPattern=8 8;endArrow=open;endFill=0;" edge="1" parent="1" source="ZrmSCk85JjBCpXTHYp6l-30">
          <mxGeometry relative="1" as="geometry">
            <mxPoint x="610" y="609" as="targetPoint" />
          </mxGeometry>
        </mxCell>
        <mxCell id="ZrmSCk85JjBCpXTHYp6l-40" style="edgeStyle=orthogonalEdgeStyle;rounded=0;orthogonalLoop=1;jettySize=auto;html=1;entryX=1;entryY=0.5;entryDx=0;entryDy=0;endArrow=classic;endFill=1;startArrow=none;startFill=0;startSize=12;" edge="1" parent="1" source="ZrmSCk85JjBCpXTHYp6l-30" target="ZrmSCk85JjBCpXTHYp6l-90">
          <mxGeometry relative="1" as="geometry">
            <mxPoint x="-20" y="603" as="targetPoint" />
            <Array as="points">
              <mxPoint x="160" y="620" />
              <mxPoint x="160" y="637" />
            </Array>
          </mxGeometry>
        </mxCell>
        <mxCell id="ZrmSCk85JjBCpXTHYp6l-45" style="edgeStyle=orthogonalEdgeStyle;rounded=0;orthogonalLoop=1;jettySize=auto;html=1;entryX=1;entryY=0.5;entryDx=0;entryDy=0;endArrow=open;endFill=0;dashed=1;dashPattern=8 8;" edge="1" parent="1" source="ZrmSCk85JjBCpXTHYp6l-30" target="ZrmSCk85JjBCpXTHYp6l-42">
          <mxGeometry relative="1" as="geometry">
            <Array as="points">
              <mxPoint x="300" y="580" />
              <mxPoint x="300" y="369" />
            </Array>
          </mxGeometry>
        </mxCell>
        <mxCell id="ZrmSCk85JjBCpXTHYp6l-82" style="edgeStyle=orthogonalEdgeStyle;rounded=0;orthogonalLoop=1;jettySize=auto;html=1;entryX=0.5;entryY=0;entryDx=0;entryDy=0;" edge="1" parent="1" source="ZrmSCk85JjBCpXTHYp6l-30" target="ZrmSCk85JjBCpXTHYp6l-77">
          <mxGeometry relative="1" as="geometry" />
        </mxCell>
        <mxCell id="ZrmSCk85JjBCpXTHYp6l-30" value="Editor" style="swimlane;fontStyle=1;align=center;verticalAlign=top;childLayout=stackLayout;horizontal=1;startSize=26;horizontalStack=0;resizeParent=1;resizeParentMax=0;resizeLast=0;collapsible=1;marginBottom=0;whiteSpace=wrap;html=1;" vertex="1" parent="1">
          <mxGeometry x="310" y="566" width="160" height="86" as="geometry" />
        </mxCell>
        <mxCell id="ZrmSCk85JjBCpXTHYp6l-31" value="+ field: type" style="text;strokeColor=none;fillColor=none;align=left;verticalAlign=top;spacingLeft=4;spacingRight=4;overflow=hidden;rotatable=0;points=[[0,0.5],[1,0.5]];portConstraint=eastwest;whiteSpace=wrap;html=1;" vertex="1" parent="ZrmSCk85JjBCpXTHYp6l-30">
          <mxGeometry y="26" width="160" height="26" as="geometry" />
        </mxCell>
        <mxCell id="ZrmSCk85JjBCpXTHYp6l-32" value="" style="line;strokeWidth=1;fillColor=none;align=left;verticalAlign=middle;spacingTop=-1;spacingLeft=3;spacingRight=3;rotatable=0;labelPosition=right;points=[];portConstraint=eastwest;strokeColor=inherit;" vertex="1" parent="ZrmSCk85JjBCpXTHYp6l-30">
          <mxGeometry y="52" width="160" height="8" as="geometry" />
        </mxCell>
        <mxCell id="ZrmSCk85JjBCpXTHYp6l-33" value="+ method(type): type" style="text;strokeColor=none;fillColor=none;align=left;verticalAlign=top;spacingLeft=4;spacingRight=4;overflow=hidden;rotatable=0;points=[[0,0.5],[1,0.5]];portConstraint=eastwest;whiteSpace=wrap;html=1;" vertex="1" parent="ZrmSCk85JjBCpXTHYp6l-30">
          <mxGeometry y="60" width="160" height="26" as="geometry" />
        </mxCell>
        <mxCell id="ZrmSCk85JjBCpXTHYp6l-34" style="edgeStyle=orthogonalEdgeStyle;rounded=0;orthogonalLoop=1;jettySize=auto;html=1;entryX=0.444;entryY=1.115;entryDx=0;entryDy=0;entryPerimeter=0;endArrow=none;endFill=0;endSize=11;startArrow=diamond;startFill=1;startSize=11;" edge="1" parent="1" source="ZrmSCk85JjBCpXTHYp6l-30" target="ZrmSCk85JjBCpXTHYp6l-4">
          <mxGeometry relative="1" as="geometry">
            <Array as="points">
              <mxPoint x="380" y="500" />
              <mxPoint x="411" y="500" />
            </Array>
          </mxGeometry>
        </mxCell>
        <mxCell id="ZrmSCk85JjBCpXTHYp6l-64" style="edgeStyle=orthogonalEdgeStyle;rounded=0;orthogonalLoop=1;jettySize=auto;html=1;entryX=0;entryY=0.5;entryDx=0;entryDy=0;" edge="1" parent="1" source="ZrmSCk85JjBCpXTHYp6l-36" target="ZrmSCk85JjBCpXTHYp6l-44">
          <mxGeometry relative="1" as="geometry" />
        </mxCell>
        <mxCell id="ZrmSCk85JjBCpXTHYp6l-88" style="edgeStyle=orthogonalEdgeStyle;rounded=0;orthogonalLoop=1;jettySize=auto;html=1;entryX=0;entryY=0.5;entryDx=0;entryDy=0;" edge="1" parent="1" source="ZrmSCk85JjBCpXTHYp6l-36" target="ZrmSCk85JjBCpXTHYp6l-60">
          <mxGeometry relative="1" as="geometry">
            <Array as="points">
              <mxPoint x="-100" y="670" />
              <mxPoint x="295" y="670" />
              <mxPoint x="295" y="669" />
            </Array>
          </mxGeometry>
        </mxCell>
        <mxCell id="ZrmSCk85JjBCpXTHYp6l-36" value="Session" style="swimlane;fontStyle=1;align=center;verticalAlign=top;childLayout=stackLayout;horizontal=1;startSize=20;horizontalStack=0;resizeParent=1;resizeParentMax=0;resizeLast=0;collapsible=1;marginBottom=0;whiteSpace=wrap;html=1;" vertex="1" parent="1">
          <mxGeometry x="-180" y="570" width="210" height="80" as="geometry" />
        </mxCell>
        <mxCell id="ZrmSCk85JjBCpXTHYp6l-38" value="" style="line;strokeWidth=1;fillColor=none;align=left;verticalAlign=middle;spacingTop=-1;spacingLeft=3;spacingRight=3;rotatable=0;labelPosition=right;points=[];portConstraint=eastwest;strokeColor=inherit;" vertex="1" parent="ZrmSCk85JjBCpXTHYp6l-36">
          <mxGeometry y="20" width="210" height="8" as="geometry" />
        </mxCell>
        <mxCell id="ZrmSCk85JjBCpXTHYp6l-39" value="+ GetImage(): Image" style="text;strokeColor=none;fillColor=none;align=left;verticalAlign=top;spacingLeft=4;spacingRight=4;overflow=hidden;rotatable=0;points=[[0,0.5],[1,0.5]];portConstraint=eastwest;whiteSpace=wrap;html=1;" vertex="1" parent="ZrmSCk85JjBCpXTHYp6l-36">
          <mxGeometry y="28" width="210" height="26" as="geometry" />
        </mxCell>
        <mxCell id="ZrmSCk85JjBCpXTHYp6l-90" value="+ SetImage(image: Image): void" style="text;strokeColor=none;fillColor=none;align=left;verticalAlign=top;spacingLeft=4;spacingRight=4;overflow=hidden;rotatable=0;points=[[0,0.5],[1,0.5]];portConstraint=eastwest;whiteSpace=wrap;html=1;" vertex="1" parent="ZrmSCk85JjBCpXTHYp6l-36">
          <mxGeometry y="54" width="210" height="26" as="geometry" />
        </mxCell>
        <mxCell id="ZrmSCk85JjBCpXTHYp6l-73" style="rounded=0;orthogonalLoop=1;jettySize=auto;html=1;entryX=1;entryY=0.5;entryDx=0;entryDy=0;exitX=0;exitY=0.5;exitDx=0;exitDy=0;" edge="1" parent="1" source="ZrmSCk85JjBCpXTHYp6l-42" target="ZrmSCk85JjBCpXTHYp6l-72">
          <mxGeometry relative="1" as="geometry">
            <mxPoint x="-20" y="420" as="sourcePoint" />
            <mxPoint x="-180" y="249" as="targetPoint" />
          </mxGeometry>
        </mxCell>
        <mxCell id="ZrmSCk85JjBCpXTHYp6l-41" value="Image" style="swimlane;fontStyle=1;align=center;verticalAlign=top;childLayout=stackLayout;horizontal=1;startSize=26;horizontalStack=0;resizeParent=1;resizeParentMax=0;resizeLast=0;collapsible=1;marginBottom=0;whiteSpace=wrap;html=1;" vertex="1" parent="1">
          <mxGeometry x="30" y="330" width="250" height="112" as="geometry" />
        </mxCell>
        <mxCell id="ZrmSCk85JjBCpXTHYp6l-42" value="- Height: integer" style="text;strokeColor=none;fillColor=none;align=left;verticalAlign=top;spacingLeft=4;spacingRight=4;overflow=hidden;rotatable=0;points=[[0,0.5],[1,0.5]];portConstraint=eastwest;whiteSpace=wrap;html=1;" vertex="1" parent="ZrmSCk85JjBCpXTHYp6l-41">
          <mxGeometry y="26" width="250" height="26" as="geometry" />
        </mxCell>
        <mxCell id="ZrmSCk85JjBCpXTHYp6l-62" value="- Width: integer" style="text;strokeColor=none;fillColor=none;align=left;verticalAlign=top;spacingLeft=4;spacingRight=4;overflow=hidden;rotatable=0;points=[[0,0.5],[1,0.5]];portConstraint=eastwest;whiteSpace=wrap;html=1;" vertex="1" parent="ZrmSCk85JjBCpXTHYp6l-41">
          <mxGeometry y="52" width="250" height="26" as="geometry" />
        </mxCell>
        <mxCell id="ZrmSCk85JjBCpXTHYp6l-43" value="" style="line;strokeWidth=1;fillColor=none;align=left;verticalAlign=middle;spacingTop=-1;spacingLeft=3;spacingRight=3;rotatable=0;labelPosition=right;points=[];portConstraint=eastwest;strokeColor=inherit;" vertex="1" parent="ZrmSCk85JjBCpXTHYp6l-41">
          <mxGeometry y="78" width="250" height="8" as="geometry" />
        </mxCell>
        <mxCell id="ZrmSCk85JjBCpXTHYp6l-44" value="+ SetBrightness(brightness: real): void" style="text;strokeColor=none;fillColor=none;align=left;verticalAlign=top;spacingLeft=4;spacingRight=4;overflow=hidden;rotatable=0;points=[[0,0.5],[1,0.5]];portConstraint=eastwest;whiteSpace=wrap;html=1;" vertex="1" parent="ZrmSCk85JjBCpXTHYp6l-41">
          <mxGeometry y="86" width="250" height="26" as="geometry" />
        </mxCell>
        <mxCell id="ZrmSCk85JjBCpXTHYp6l-69" value="&amp;lt;&amp;lt;Enumeration&amp;gt;&amp;gt;&lt;div&gt;ImageFormat&lt;/div&gt;" style="swimlane;fontStyle=0;childLayout=stackLayout;horizontal=1;startSize=26;fillColor=none;horizontalStack=0;resizeParent=1;resizeParentMax=0;resizeLast=0;collapsible=1;marginBottom=0;whiteSpace=wrap;html=1;" vertex="1" parent="1">
          <mxGeometry x="-300" y="210" width="140" height="78" as="geometry" />
        </mxCell>
        <mxCell id="ZrmSCk85JjBCpXTHYp6l-71" value="JPEG" style="text;strokeColor=none;fillColor=none;align=left;verticalAlign=top;spacingLeft=4;spacingRight=4;overflow=hidden;rotatable=0;points=[[0,0.5],[1,0.5]];portConstraint=eastwest;whiteSpace=wrap;html=1;" vertex="1" parent="ZrmSCk85JjBCpXTHYp6l-69">
          <mxGeometry y="26" width="140" height="26" as="geometry" />
        </mxCell>
        <mxCell id="ZrmSCk85JjBCpXTHYp6l-72" value="PNG" style="text;strokeColor=none;fillColor=none;align=left;verticalAlign=top;spacingLeft=4;spacingRight=4;overflow=hidden;rotatable=0;points=[[0,0.5],[1,0.5]];portConstraint=eastwest;whiteSpace=wrap;html=1;" vertex="1" parent="ZrmSCk85JjBCpXTHYp6l-69">
          <mxGeometry y="52" width="140" height="26" as="geometry" />
        </mxCell>
        <mxCell id="ZrmSCk85JjBCpXTHYp6l-74" value="ImageSharp" style="shape=folder;fontStyle=1;spacingTop=10;tabWidth=40;tabHeight=14;tabPosition=left;html=1;whiteSpace=wrap;" vertex="1" parent="1">
          <mxGeometry x="-540" y="416" width="90" height="70" as="geometry" />
        </mxCell>
        <mxCell id="ZrmSCk85JjBCpXTHYp6l-84" style="edgeStyle=orthogonalEdgeStyle;rounded=0;orthogonalLoop=1;jettySize=auto;html=1;entryX=0;entryY=0.5;entryDx=0;entryDy=0;dashed=1;endArrow=open;endFill=0;" edge="1" parent="1" source="ZrmSCk85JjBCpXTHYp6l-77" target="ZrmSCk85JjBCpXTHYp6l-62">
          <mxGeometry relative="1" as="geometry">
            <Array as="points">
              <mxPoint x="-260" y="900" />
              <mxPoint x="-260" y="612" />
              <mxPoint x="-220" y="612" />
              <mxPoint x="-220" y="395" />
            </Array>
          </mxGeometry>
        </mxCell>
        <mxCell id="ZrmSCk85JjBCpXTHYp6l-77" value="FileManager" style="swimlane;fontStyle=1;align=center;verticalAlign=top;childLayout=stackLayout;horizontal=1;startSize=26;horizontalStack=0;resizeParent=1;resizeParentMax=0;resizeLast=0;collapsible=1;marginBottom=0;whiteSpace=wrap;html=1;" vertex="1" parent="1">
          <mxGeometry x="310" y="790" width="240" height="164" as="geometry" />
        </mxCell>
        <mxCell id="ZrmSCk85JjBCpXTHYp6l-78" value="+ field: type" style="text;strokeColor=none;fillColor=none;align=left;verticalAlign=top;spacingLeft=4;spacingRight=4;overflow=hidden;rotatable=0;points=[[0,0.5],[1,0.5]];portConstraint=eastwest;whiteSpace=wrap;html=1;" vertex="1" parent="ZrmSCk85JjBCpXTHYp6l-77">
          <mxGeometry y="26" width="240" height="26" as="geometry" />
        </mxCell>
        <mxCell id="ZrmSCk85JjBCpXTHYp6l-79" value="" style="line;strokeWidth=1;fillColor=none;align=left;verticalAlign=middle;spacingTop=-1;spacingLeft=3;spacingRight=3;rotatable=0;labelPosition=right;points=[];portConstraint=eastwest;strokeColor=inherit;" vertex="1" parent="ZrmSCk85JjBCpXTHYp6l-77">
          <mxGeometry y="52" width="240" height="8" as="geometry" />
        </mxCell>
        <mxCell id="ZrmSCk85JjBCpXTHYp6l-85" value="+ SaveImage(image: Image): void" style="text;strokeColor=none;fillColor=none;align=left;verticalAlign=top;spacingLeft=4;spacingRight=4;overflow=hidden;rotatable=0;points=[[0,0.5],[1,0.5]];portConstraint=eastwest;whiteSpace=wrap;html=1;" vertex="1" parent="ZrmSCk85JjBCpXTHYp6l-77">
          <mxGeometry y="60" width="240" height="26" as="geometry" />
        </mxCell>
        <mxCell id="ZrmSCk85JjBCpXTHYp6l-86" value="+ SaveSession(session: Session): void" style="text;strokeColor=none;fillColor=none;align=left;verticalAlign=top;spacingLeft=4;spacingRight=4;overflow=hidden;rotatable=0;points=[[0,0.5],[1,0.5]];portConstraint=eastwest;whiteSpace=wrap;html=1;" vertex="1" parent="ZrmSCk85JjBCpXTHYp6l-77">
          <mxGeometry y="86" width="240" height="26" as="geometry" />
        </mxCell>
        <mxCell id="ZrmSCk85JjBCpXTHYp6l-80" value="+ LoadImage(): Image" style="text;strokeColor=none;fillColor=none;align=left;verticalAlign=top;spacingLeft=4;spacingRight=4;overflow=hidden;rotatable=0;points=[[0,0.5],[1,0.5]];portConstraint=eastwest;whiteSpace=wrap;html=1;" vertex="1" parent="ZrmSCk85JjBCpXTHYp6l-77">
          <mxGeometry y="112" width="240" height="26" as="geometry" />
        </mxCell>
        <mxCell id="ZrmSCk85JjBCpXTHYp6l-87" value="+ LoadSession(): Session" style="text;strokeColor=none;fillColor=none;align=left;verticalAlign=top;spacingLeft=4;spacingRight=4;overflow=hidden;rotatable=0;points=[[0,0.5],[1,0.5]];portConstraint=eastwest;whiteSpace=wrap;html=1;" vertex="1" parent="ZrmSCk85JjBCpXTHYp6l-77">
          <mxGeometry y="138" width="240" height="26" as="geometry" />
        </mxCell>
        <mxCell id="ZrmSCk85JjBCpXTHYp6l-83" style="edgeStyle=orthogonalEdgeStyle;rounded=0;orthogonalLoop=1;jettySize=auto;html=1;entryX=0;entryY=0.5;entryDx=0;entryDy=0;endArrow=open;endFill=0;dashed=1;" edge="1" parent="1" source="ZrmSCk85JjBCpXTHYp6l-77" target="ZrmSCk85JjBCpXTHYp6l-90">
          <mxGeometry relative="1" as="geometry">
            <mxPoint x="-149.92000000000007" y="676.988" as="targetPoint" />
            <Array as="points">
              <mxPoint x="40" y="833" />
              <mxPoint x="40" y="720" />
              <mxPoint x="-220" y="720" />
              <mxPoint x="-220" y="637" />
            </Array>
          </mxGeometry>
        </mxCell>
        <mxCell id="cnXh2z_6RO4iK5pfUF1w-1" value="&lt;i&gt;Command&lt;/i&gt;" style="swimlane;fontStyle=1;align=center;verticalAlign=top;childLayout=stackLayout;horizontal=1;startSize=26;horizontalStack=0;resizeParent=1;resizeParentMax=0;resizeLast=0;collapsible=1;marginBottom=0;whiteSpace=wrap;html=1;" vertex="1" parent="1">
          <mxGeometry x="310" y="50" width="160" height="86" as="geometry" />
        </mxCell>
        <mxCell id="cnXh2z_6RO4iK5pfUF1w-2" value="# _image: Image" style="text;strokeColor=none;fillColor=none;align=left;verticalAlign=top;spacingLeft=4;spacingRight=4;overflow=hidden;rotatable=0;points=[[0,0.5],[1,0.5]];portConstraint=eastwest;whiteSpace=wrap;html=1;" vertex="1" parent="cnXh2z_6RO4iK5pfUF1w-1">
          <mxGeometry y="26" width="160" height="26" as="geometry" />
        </mxCell>
        <mxCell id="cnXh2z_6RO4iK5pfUF1w-3" value="" style="line;strokeWidth=1;fillColor=none;align=left;verticalAlign=middle;spacingTop=-1;spacingLeft=3;spacingRight=3;rotatable=0;labelPosition=right;points=[];portConstraint=eastwest;strokeColor=inherit;" vertex="1" parent="cnXh2z_6RO4iK5pfUF1w-1">
          <mxGeometry y="52" width="160" height="8" as="geometry" />
        </mxCell>
        <mxCell id="cnXh2z_6RO4iK5pfUF1w-4" value="+ Execute(): void" style="text;strokeColor=none;fillColor=none;align=left;verticalAlign=top;spacingLeft=4;spacingRight=4;overflow=hidden;rotatable=0;points=[[0,0.5],[1,0.5]];portConstraint=eastwest;whiteSpace=wrap;html=1;" vertex="1" parent="cnXh2z_6RO4iK5pfUF1w-1">
          <mxGeometry y="60" width="160" height="26" as="geometry" />
        </mxCell>
      </root>
    </mxGraphModel>
  </diagram>
</mxfile>
